<svg viewBox="0 0 24 24" xmlns="http://www.w3.org/2000/svg" fill="none">
  <path d="M11.5 3C7.5 3 4 5.5 3 9.5C2.5 11 2.5 12.5 3 14C3.5 15.5 4.5 16.5 6 17.5C7 18 8 18.5 9.5 18.5C10.5 18.5 11.5 18.5 12.5 18C13.5 17.5 14.5 17 15.5 16C16.5 15 17 14 17.5 12.5C18 11 18 9.5 17.5 8C17 6.5 16 5 14.5 4C13.5 3.5 12.5 3 11.5 3Z" fill="#5468FF"/>
  <path d="M16 5C16.5 4 17.5 3.5 18.5 3.5C19.5 3.5 20.5 4 21 5C21.5 6 21 7 20 7.5C19 8 17.5 7.5 17 6.5C16.5 6 16 5.5 16 5Z" fill="#5468FF"/>
  <ellipse cx="7" cy="10" rx="2.5" ry="2" fill="white"/>
  <ellipse cx="8" cy="15" rx="1" ry="0.8" fill="white"/>
  <ellipse cx="13" cy="9" rx="0.8" ry="0.8" fill="white"/>
  <path d="M17.5 16C18 16.5 18.5 17 19 17C19.5 17 20 16.5 20 16" stroke="#5468FF" stroke-width="1" stroke-linecap="round"/>
</svg>