<svg width="240" height="240" viewBox="0 0 240 240" xmlns="http://www.w3.org/2000/svg">
  <!-- OpenAI Hexagonal Logo Symbol -->
  <defs>
    <linearGradient id="openaiGradient" x1="0%" y1="0%" x2="100%" y2="100%">
      <stop offset="0%" style="stop-color:#10A37F;stop-opacity:1" />
      <stop offset="100%" style="stop-color:#0D8F6C;stop-opacity:1" />
    </linearGradient>
  </defs>
  
  <!-- Outer hexagon -->
  <path d="M120 20 L190 60 L190 140 L120 180 L50 140 L50 60 Z" 
        fill="none" 
        stroke="url(#openaiGradient)" 
        stroke-width="8"/>
  
  <!-- Inner spiral/swirl pattern characteristic of OpenAI -->
  <path d="M120 70 C100 70, 80 90, 80 110 C80 130, 100 150, 120 150 C140 150, 160 130, 160 110 C160 90, 140 70, 120 70 M120 90 C130 90, 140 100, 140 110 C140 120, 130 130, 120 130 C110 130, 100 120, 100 110 C100 100, 110 90, 120 90" 
        fill="url(#openaiGradient)"/>
  
  <!-- Center dot -->
  <circle cx="120" cy="110" r="8" fill="#10A37F"/>
  
  <!-- Corner accents -->
  <circle cx="120" cy="20" r="4" fill="#10A37F"/>
  <circle cx="190" cy="60" r="4" fill="#10A37F"/>
  <circle cx="190" cy="140" r="4" fill="#10A37F"/>
  <circle cx="120" cy="180" r="4" fill="#10A37F"/>
  <circle cx="50" cy="140" r="4" fill="#10A37F"/>
  <circle cx="50" cy="60" r="4" fill="#10A37F"/>
</svg>