<?xml version="1.0" encoding="UTF-8"?>
<svg width="256" height="256" viewBox="0 0 256 256" xmlns="http://www.w3.org/2000/svg">
  <defs>
    <linearGradient id="g" x1="0%" y1="0%" x2="0%" y2="100%">
      <stop offset="0%" stop-color="#7ed957"/>
      <stop offset="100%" stop-color="#2b9348"/>
    </linearGradient>
  </defs>
  <rect rx="24" ry="24" width="256" height="256" fill="#0d1117"/>
  <g transform="translate(28,28)">
    <circle cx="100" cy="100" r="96" fill="url(#g)" opacity="0.12"/>
    <path d="M100 24c-42 0-76 34-76 76 0 18 6 34 17 47l-8 29 29-8c13 11 29 17 47 17 42 0 76-34 76-76s-34-76-76-76z" fill="none" stroke="#7ed957" stroke-width="8" stroke-linecap="round" stroke-linejoin="round"/>
    <path d="M70 120c10 0 18-8 18-18s-8-18-18-18-18 8-18 18 8 18 18 18zm60 28c14 0 26-12 26-26s-12-26-26-26-26 12-26 26 12 26 26 26z" fill="#7ed957" opacity="0.9"/>
    <path d="M72 118l46 22M88 80l54 26" stroke="#a7f3d0" stroke-width="6" stroke-linecap="round" opacity="0.8"/>
  </g>
</svg>
