<svg width="206" height="231" viewBox="0 0 206 231" fill="none" xmlns="http://www.w3.org/2000/svg">
<path d="M143.143 84C143.143 96.1503 133.293 106 121.143 106C108.992 106 99.1426 96.1503 99.1426 84C99.1426 71.8497 108.992 62 121.143 62C133.293 62 143.143 71.8497 143.143 84Z" fill="#FFC131"/>
<ellipse cx="84.1426" cy="147" rx="22" ry="22" transform="rotate(180 84.1426 147)" fill="#24C8DB"/>
<path fill-rule="evenodd" clip-rule="evenodd" d="M166.738 154.548C157.86 160.286 148.023 164.269 137.757 166.341C139.858 160.282 141 153.774 141 147C141 144.543 140.85 142.121 140.558 139.743C144.975 138.204 149.215 136.139 153.183 133.575C162.73 127.404 170.292 118.608 174.961 108.244C179.63 97.8797 181.207 86.3876 179.502 75.1487C177.798 63.9098 172.884 53.4021 165.352 44.8883C157.82 36.3744 147.99 30.2165 137.042 27.1546C126.095 24.0926 114.496 24.2568 103.64 27.6274C92.7839 30.998 83.1319 37.4317 75.8437 46.1553C74.9102 47.2727 74.0206 48.4216 73.176 49.5993C61.9292 50.8488 51.0363 54.0318 40.9629 58.9556C44.2417 48.4586 49.5653 38.6591 56.679 30.1442C67.0505 17.7298 80.7861 8.57426 96.2354 3.77762C111.685 -1.01901 128.19 -1.25267 143.769 3.10474C159.348 7.46215 173.337 16.2252 184.056 28.3411C194.775 40.457 201.767 55.4101 204.193 71.404C206.619 87.3978 204.374 103.752 197.73 118.501C191.086 133.25 180.324 145.767 166.738 154.548ZM41.9631 74.275L62.5287 65.3349C63.1164 64.238 63.7388 63.1622 64.3948 62.1088C72.3178 46.3678 84.6 33.6 99.2692 25.3327C102.362 23.5728 105.561 22.0646 108.841 20.8167C86.8556 29.6669 69.1609 47.3512 60.5124 69.9723C60.176 70.8859 59.8553 71.8056 59.5509 72.7309C51.265 75.3547 43.3879 79.0775 36.1456 83.7639C33.6517 85.5504 31.2888 87.5084 29.0728 89.6223C32.4738 81.3896 36.9733 73.6646 42.4599 66.6272M35.0489 89.666C37.8554 87.0412 40.8743 84.6207 44.081 82.4268C52.5437 76.4523 62.0805 72.2249 71.9766 70.0164L73.5214 61.2596C75.3427 49.2976 79.4134 37.7624 85.5931 27.142C92.9571 14.1525 103.205 3.12482 115.453 -2.77914C119.626 -4.49168 123.93 -5.73645 128.304 -6.49095C108.931 -3.23674 91.7613 8.89922 81.175 26.4798C73.9897 37.8971 69.3323 50.5038 67.4133 63.5491C53.9334 66.8498 41.4894 73.2527 31.1139 82.2426C21.4952 90.5842 14.106 101.026 9.50746 112.628C4.90886 124.23 3.23686 136.622 4.60423 148.832C4.89132 151.152 5.28511 153.459 5.78395 155.745C4.05951 145.992 5.20818 135.961 9.11494 126.693C13.0217 117.426 19.5695 109.255 28.1792 103.024C28.6570 102.674 29.1372 102.329 29.6197 101.99L35.0489 89.666Z" fill="url(#paint0_linear_0_1)"/>
<defs>
<linearGradient id="paint0_linear_0_1" x1="53.456" y1="10.631" x2="154.827" y2="143.757" gradientUnits="userSpaceOnUse">
<stop stop-color="#FFC131"/>
<stop offset="0.983738" stop-color="#24C8DB"/>
</linearGradient>
</defs>
</svg>